# xmcd
#
# Track frame offsets:
#	150
#	21496
#	47482
#	66015
#	86191
#	108163
#	129684
#	148867
#	170179
#	188337
#
# Disc length: 2832 seconds
#
# Revision: 1
# Processed by: cddbd v1.5.2PL0 Copyright (c) Steve Scherf et al.
# Submitted via: EZCDAudioConverter 8.0.2.1
#
DISCID=8d0b0e0a
DTITLE=Mạnh Đình - Tháng giêng ngồi giỡn bóng mình
DYEAR=2000
DGENRE=country
TTITLE0=Thăm Huế
TTITLE1=Điệu buồn phương Nam
TTITLE2=Em đi qua chuyến đò
TTITLE3=Chiếc áo dài quê hương
TTITLE4=Tôn nữ còn buồn
TTITLE5=Thôi
TTITLE6=Tháng giêng ngồi giỡn bóng mình
TTITLE7=Tiếng hát chim đa đa
TTITLE8=Chỉ còn trái tim
TTITLE9=Gửi niềm thương Huế
EXTD=
EXTT0=
EXTT1=
EXTT2=
EXTT3=
EXTT4=
EXTT5=
EXTT6=
EXTT7=
EXTT8=
EXTT9=
PLAYORDER=
